<svg xmlns="http://www.w3.org/2000/svg" width="41" height="48" viewBox="0 0 41 48">
  <g transform="translate(-7)">
    <path d="M516.376,528.692c.047.5.115.993.192,1.493.167,1.083.259,3.022,1.375,3.627,1.512.819,3.818-.082,5.134-.875,2.507-1.51,3.895-3.99,6.01-5.887,1.586-1.423,3.656-2.072,5.344-3.349a5.916,5.916,0,0,0,2.317-3.452c.814-4.158-3.815-4.727-5.809-7.281a5.8,5.8,0,0,1-1.241-2.425c-.028-.141-.194-.722-.021-.838s.592.236.715.339c.366.307,1.273.92,1.788.671a2.44,2.44,0,0,0,1.1-1.486c.009-.031.264-.971.36-.914.243.146.431.771.537,1.009a5.054,5.054,0,0,0,1.127,1.686c.937.867,2.433.878,3.467,1.667a2.7,2.7,0,0,1,.84.974c.03.064.22.669.291.641.156-.061.329-.311.444-.429.9-.914.364-1.516-.593-2.24-1.171-.885-2.7-1.135-3.673-2.3a9.33,9.33,0,0,1-.877-2.023,2.97,2.97,0,0,0-.578-.784c-.114-.108-.426-.122-.384-.273.017-.059.4-.011.441-.008a2.847,2.847,0,0,1,1.375.473c1.4.953,1.561,2.423,3.718,2.178a2.129,2.129,0,0,0,.968-.222c.268-.225-.1-1.356-.167-1.634-.02-.09-.047-.4-.146-.448-.141-.07-.592.3-.7.362a1.917,1.917,0,0,1-1.416.249c-1.061-.251-1.176-1.288-1.888-1.938a2.749,2.749,0,0,0-1.489-.682c-.212-.028-.765.077-.917-.1-.208-.239-.153-.977-.153-.977.014.1.824.224.913.242.812.165,1.9.449,2.254-.517.648-1.76.817-3.714,1.344-5.517.322-1.1,1.079-2.611,1-3.785-.062-.87-1.351-1.34-1.364-2.1a1.055,1.055,0,0,1,.094-.354c.23-.631.458-.262,1.117-.387.227-.043.294-.561.189-.725-.224-.347-.826-.334-1.043-.643-.324-.462.841-.959-.244-1.4-.094-.038-.291-.143-.393-.089-.437.235-.256,1.084-.633,1.395-.211.174-.718-.472-.821-.118-.05.171-.214.765-.075.91s.867.248.789.508c-.19.63-.984.314-1.151.832-.258.8-.457,1.634-.683,2.449-.044.161-.111.778-.264.879-.005,0-.1-.268-.109-.286a3.708,3.708,0,0,0-.241-.554,1.147,1.147,0,0,0-1.249-.615,2.6,2.6,0,0,0-1.5.782,4.3,4.3,0,0,0-.389.457c-.006.008-.166.26-.17.258-.078-.052.143-.727.158-.789a16.243,16.243,0,0,0,.688-2.331c.084-1.079-1.385-1.83-1.515-2.654-.025-.158.231-.849.414-.845s.409.237.566.172c.212-.087.332-.571.38-.771.1-.412-.585-.307-.738-.583-.3-.549.587-1.057-.337-1.245a1.161,1.161,0,0,0-.33-.069c-.374.06-.457.854-.668,1.089-.056.062-.5-.445-.7-.224-.158.181-.451.973-.237,1.16.141.123.567.182.646.322.1.173-.123.629-.207.778-.468.822-1.778.973-2.178,1.853a22.949,22.949,0,0,0-.765,2.613c-.6,1.911-1.226,3.8-1.982,5.651a11.2,11.2,0,0,1-1.132,2.446c-.4.54-1.036.94-1.489,1.44l-.461.522a9.88,9.88,0,0,1,1.323,2.313s-2.469,1.083-2.888,1.345a14.959,14.959,0,0,0-1.215.882c-.018.09,1.069,1.639,1.142,1.746a4.623,4.623,0,0,1,.862,3.225c-.079,2.409-.793,4.521.372,6.878,1.06,2.144,3,3.73,4.006,5.9a3.786,3.786,0,0,1,0,3.834,3.158,3.158,0,0,1-2.959,1.387c-1.786-.253-3.05-1.816-4.781-2.293A7.427,7.427,0,0,0,516.376,528.692Z" transform="translate(-493.236 -486)" fill="#06c" fill-rule="evenodd"/>
    <path d="M610.123,524.363l-.327-.517a26.859,26.859,0,0,0-3.606-5.008c-.983-1.058-3.3-1.9-4.523-2.632q-.431-.259-.867-.508c-.582-.331-2.7-1.891-3.415-1.232-.952.881-1.17,2.8-1.467,3.982a29.755,29.755,0,0,0-1.031,4.568,22.1,22.1,0,0,0,.336,4.539,12.736,12.736,0,0,0,.781,3.588c.117.257.5.052.685,0,.368-.1,1.529-.674,1.923-.49.134.062.091.443.092.55a10.28,10.28,0,0,0,.09,1.678c.036.2.45,1.021.364,1.183-.122.23-.8.41-1.029.544-2.577,1.548-4.3-1.472-6.987-1.049-.474.075-1.843.3-2.1.825-.069.141.547.633.634.734.141.161.454.891.663.968.113.042.522-.354.615-.414a1.878,1.878,0,0,1,1.386-.344c1.41.314,2.34,1.863,3.9,1.778a4.249,4.249,0,0,0,2.056-.809c.926-.638,1.344-1.2,1.839.042.062.155-.861.744-.966.83-1.144.941-1.977,1.819-3.591,1.664a17.66,17.66,0,0,0-2-.281c-.048,0-.6.025-.574.113.063.231.493.5.645.68.243.295.568,1.039.94,1.19.511.208,1.783-.545,2.316-.67a6.87,6.87,0,0,0,3.193-1.335c.3-.273.481-1.061.758-1.238.167-.106.369.178.566.172a2.617,2.617,0,0,0,1.069-.391,16.169,16.169,0,0,1,2.1-1.319c.089,0,.143.391.151.43a2.008,2.008,0,0,1-.39,1.424,7.543,7.543,0,0,1-3.686,2.471c-1.725.64-3.986.766-5.188,2.347-1.652,2.172.451,4.4,2.246,5.6,2.323,1.549,4.908.949,7.431,1.379a11.993,11.993,0,0,1,.486-5.372,34.914,34.914,0,0,1,2.055-3.993,5.788,5.788,0,0,0,.81-3.076,11.642,11.642,0,0,0-1.075-2.827,7.83,7.83,0,0,1-.468-4.155A12.613,12.613,0,0,1,610.123,524.363Z" transform="translate(-582.018 -506.711)" fill="#c00" fill-rule="evenodd"/>
    <path d="M578.715,551.792a12.615,12.615,0,0,0-3.159,5.618,7.831,7.831,0,0,0,.468,4.155,11.653,11.653,0,0,1,1.075,2.826,5.789,5.789,0,0,1-.81,3.076,34.89,34.89,0,0,0-2.055,3.993,12,12,0,0,0-.486,5.372,7.41,7.41,0,0,1,.829.178c1.731.477,2.994,2.04,4.781,2.293a3.158,3.158,0,0,0,2.959-1.387,3.786,3.786,0,0,0,0-3.834c-1.011-2.172-2.947-3.759-4.007-5.9-1.165-2.357-.451-4.469-.372-6.878a4.623,4.623,0,0,0-.862-3.225c-.073-.107-1.161-1.656-1.142-1.746.013-.066,1.157-.845,1.215-.882.419-.262,2.888-1.345,2.888-1.345A9.878,9.878,0,0,0,578.715,551.792Z" transform="translate(-550.61 -534.139)" fill="#f9f" fill-rule="evenodd"/>
  </g>
</svg>
